<?xml version="1.0" encoding="UTF-8" standalone="no"?>
<!-- Created with Inkscape (http://www.inkscape.org/) -->

<svg
   width="28.900751mm"
   height="26.072205mm"
   viewBox="0 0 28.900751 26.072205"
   version="1.1"
   id="svg1046"
   inkscape:version="1.1 (1:1.1+202106031931+af4d65493e)"
   sodipodi:docname="cloudflare_workers.svg"
   xmlns:inkscape="http://www.inkscape.org/namespaces/inkscape"
   xmlns:sodipodi="http://sodipodi.sourceforge.net/DTD/sodipodi-0.dtd"
   xmlns:xlink="http://www.w3.org/1999/xlink"
   xmlns="http://www.w3.org/2000/svg"
   xmlns:svg="http://www.w3.org/2000/svg">
  <sodipodi:namedview
     id="namedview1048"
     pagecolor="#ffffff"
     bordercolor="#666666"
     borderopacity="1.0"
     inkscape:pageshadow="2"
     inkscape:pageopacity="0.0"
     inkscape:pagecheckerboard="0"
     inkscape:document-units="mm"
     showgrid="false"
     fit-margin-top="0"
     fit-margin-left="0"
     fit-margin-bottom="0"
     fit-margin-right="0"
     inkscape:zoom="0.60756173"
     inkscape:cx="207.38633"
     inkscape:cy="-71.597663"
     inkscape:window-width="2560"
     inkscape:window-height="1396"
     inkscape:window-x="1920"
     inkscape:window-y="0"
     inkscape:window-maximized="1"
     inkscape:current-layer="layer1" />
  <defs
     id="defs1043">
    <linearGradient
       xlink:href="#linearGradient8284"
       id="linearGradient10638"
       gradientUnits="userSpaceOnUse"
       x1="-14.691365"
       y1="172.73196"
       x2="604.08002"
       y2="172.73196" />
    <linearGradient
       x1="0"
       y1="0"
       x2="1"
       y2="0"
       gradientUnits="userSpaceOnUse"
       gradientTransform="matrix(259.53284,0,0,-259.53284,458.57315,357.58725)"
       spreadMethod="pad"
       id="linearGradient8284">
      <stop
         style="stop-opacity:1;stop-color:#000000"
         offset="0"
         id="stop8280" />
      <stop
         style="stop-opacity:1;stop-color:#3070d0"
         offset="1"
         id="stop8282" />
    </linearGradient>
    <linearGradient
       y2="24.268799"
       y1="241.87607"
       x2="61.352177"
       x1="119.26956"
       id="CloudflareWorkersLogoCombinationMarkHorizontal--gradient-a"
       gradientTransform="scale(0.65424958,1.5284687)"
       gradientUnits="userSpaceOnUse">
      <stop
         id="stop7031"
         stop-color="#eb6f07"
         offset="0%" />
      <stop
         id="stop7033"
         stop-color="#fab743"
         offset="100%" />
    </linearGradient>
    <linearGradient
       y2="203.70241"
       y1="296.25995"
       x2="76.342865"
       x1="145.50487"
       id="CloudflareWorkersLogoCombinationMarkHorizontal--gradient-b"
       gradientTransform="scale(0.87664464,1.1407131)"
       gradientUnits="userSpaceOnUse">
      <stop
         id="stop7036"
         stop-color="#d96504"
         offset="0%" />
      <stop
         id="stop7038"
         stop-opacity="0"
         stop-color="#d96504"
         offset="100%" />
    </linearGradient>
    <linearGradient
       y2="83.889603"
       y1="13.818598"
       x2="144.51086"
       x1="103.17684"
       id="CloudflareWorkersLogoCombinationMarkHorizontal--gradient-c"
       gradientTransform="scale(0.97343549,1.0272894)"
       gradientUnits="userSpaceOnUse">
      <stop
         id="stop7041"
         stop-color="#eb6f07"
         offset="0%" />
      <stop
         id="stop7043"
         stop-opacity="0"
         stop-color="#eb720a"
         offset="100%" />
    </linearGradient>
    <linearGradient
       y2="24.296316"
       y1="279.26801"
       x2="351.07346"
       x1="418.93558"
       id="CloudflareWorkersLogoCombinationMarkHorizontal--gradient-d"
       gradientTransform="scale(0.74471471,1.3427961)"
       gradientUnits="userSpaceOnUse">
      <stop
         id="stop7046"
         stop-color="#ee6f05"
         offset="0%" />
      <stop
         id="stop7048"
         stop-color="#fab743"
         offset="100%" />
    </linearGradient>
    <linearGradient
       y2="0"
       y1="211.19463"
       x2="557.76331"
       x1="293.98117"
       id="CloudflareWorkersLogoCombinationMarkHorizontal--gradient-e"
       gradientTransform="scale(0.56303553,1.7760868)"
       gradientUnits="userSpaceOnUse">
      <stop
         id="stop7051"
         stop-opacity=".8"
         stop-color="#d96504"
         offset="0%" />
      <stop
         id="stop7053"
         stop-opacity=".2"
         stop-color="#d96504"
         offset="49.8%" />
      <stop
         id="stop7055"
         stop-opacity="0"
         stop-color="#d96504"
         offset="100%" />
    </linearGradient>
    <linearGradient
       y2="23.900692"
       y1="274.72061"
       x2="216.66068"
       x1="283.41779"
       id="CloudflareWorkersLogoCombinationMarkHorizontal--gradient-f"
       gradientTransform="scale(0.73258827,1.3650232)"
       gradientUnits="userSpaceOnUse">
      <stop
         id="stop7058"
         stop-color="#ffa95f"
         offset="0%" />
      <stop
         id="stop7060"
         stop-color="#ffebc8"
         offset="100%" />
    </linearGradient>
    <linearGradient
       y2="98.778008"
       y1="2.2265534"
       x2="564.00464"
       x1="385.07071"
       id="CloudflareWorkersLogoCombinationMarkHorizontal--gradient-g"
       gradientTransform="scale(0.53977054,1.8526391)"
       gradientUnits="userSpaceOnUse">
      <stop
         id="stop7063"
         stop-opacity=".5"
         stop-color="#fff"
         offset="0%" />
      <stop
         id="stop7065"
         stop-opacity=".1"
         stop-color="#fff"
         offset="100%" />
    </linearGradient>
    <linearGradient
       y2="93.069389"
       y1="208.83029"
       x1="171.76585"
       id="CloudflareWorkersLogoCombinationMarkHorizontal--gradient-h"
       gradientTransform="scale(0.53739306,1.8608353)"
       x2="398.69717"
       gradientUnits="userSpaceOnUse">
      <stop
         id="stop7068"
         stop-opacity=".5"
         stop-color="#fff"
         offset="0%" />
      <stop
         id="stop7070"
         stop-opacity=".1"
         stop-color="#fff"
         offset="100%" />
    </linearGradient>
    <linearGradient
       inkscape:collect="always"
       xlink:href="#linearGradient8284"
       id="linearGradient1320"
       gradientUnits="userSpaceOnUse"
       x1="-14.691365"
       y1="172.73196"
       x2="604.08002"
       y2="172.73196" />
    <linearGradient
       inkscape:collect="always"
       xlink:href="#linearGradient8284"
       id="linearGradient1322"
       gradientUnits="userSpaceOnUse"
       x1="-14.691365"
       y1="172.73196"
       x2="604.08002"
       y2="172.73196" />
    <linearGradient
       inkscape:collect="always"
       xlink:href="#linearGradient8284"
       id="linearGradient1324"
       gradientUnits="userSpaceOnUse"
       x1="-14.691365"
       y1="172.73196"
       x2="604.08002"
       y2="172.73196" />
    <linearGradient
       inkscape:collect="always"
       xlink:href="#linearGradient8284"
       id="linearGradient1326"
       gradientUnits="userSpaceOnUse"
       x1="-14.691365"
       y1="172.73196"
       x2="604.08002"
       y2="172.73196" />
    <linearGradient
       inkscape:collect="always"
       xlink:href="#linearGradient8284"
       id="linearGradient1328"
       gradientUnits="userSpaceOnUse"
       x1="-14.691365"
       y1="172.73196"
       x2="604.08002"
       y2="172.73196" />
    <linearGradient
       inkscape:collect="always"
       xlink:href="#linearGradient8284"
       id="linearGradient1330"
       gradientUnits="userSpaceOnUse"
       x1="-14.691365"
       y1="172.73196"
       x2="604.08002"
       y2="172.73196" />
    <linearGradient
       inkscape:collect="always"
       xlink:href="#linearGradient8284"
       id="linearGradient1332"
       gradientUnits="userSpaceOnUse"
       x1="-14.691365"
       y1="172.73196"
       x2="604.08002"
       y2="172.73196" />
    <linearGradient
       inkscape:collect="always"
       xlink:href="#linearGradient8284"
       id="linearGradient1334"
       gradientUnits="userSpaceOnUse"
       x1="-14.691365"
       y1="172.73196"
       x2="604.08002"
       y2="172.73196" />
  </defs>
  <g
     inkscape:label="Layer 1"
     inkscape:groupmode="layer"
     id="layer1"
     transform="translate(-23.558508,-167.68971)">
    <g
       id="g7136"
       transform="matrix(0.06932114,0,0,0.06932113,23.588703,167.72437)"
       style="stroke:url(#linearGradient10638);stroke-width:1;stroke-opacity:1"
       inkscape:transform-center-x="2.2533985"
       inkscape:transform-center-y="-37.63559">
      <path
         id="path7079"
         d="m 107,5.4 49,88.4 -45,81 a 26,26 0 0 0 0,25.3 l 45,81.2 -49,88.4 A 52,52 0 0 1 85,349 L 7,213.5 a 52.2,52.2 0 0 1 0,-52 L 85,26 A 52,52 0 0 1 107,5.4 Z"
         style="fill:url(#CloudflareWorkersLogoCombinationMarkHorizontal--gradient-a);stroke:url(#linearGradient1320);stroke-width:1;stroke-opacity:1" />
      <path
         id="path7081"
         d="m 111,174.9 a 26,26 0 0 0 0,25.2 l 45,81.2 -49,88.4 A 52,52 0 0 1 85,349 L 7,213.5 C 0.8,202.8 35.5,190 111,175 Z"
         style="opacity:0.7;fill:url(#CloudflareWorkersLogoCombinationMarkHorizontal--gradient-b);stroke:url(#linearGradient1322);stroke-width:1;stroke-opacity:1" />
      <path
         id="path7083"
         d="m 112,14.3 44,79.5 -7.3,12.7 -38.8,-65.7 C 98.7,22.5 81.6,32 60.2,69 L 63.4,63.5 85,26 A 52,52 0 0 1 106.8,5.4 l 5.1,8.9 z"
         style="opacity:0.5;fill:url(#CloudflareWorkersLogoCombinationMarkHorizontal--gradient-c);stroke:url(#linearGradient1324);stroke-width:1;stroke-opacity:1" />
      <path
         id="path7085"
         d="m 331,26 78,135.5 c 9.3,16 9.3,36 0,52 L 331,349 a 52,52 0 0 1 -45,26 h -78 l 97,-174.9 a 26,26 0 0 0 0,-25.2 L 208,0 h 78 a 52,52 0 0 1 45,26 z"
         style="fill:url(#CloudflareWorkersLogoCombinationMarkHorizontal--gradient-d);stroke:url(#linearGradient1326);stroke-width:1;stroke-opacity:1" />
      <path
         id="path7087"
         d="m 282,374.4 -77,0.7 93.2,-175.8 a 27,27 0 0 0 0,-25.4 L 205,0 h 17.6 l 97.8,173.1 a 27,27 0 0 1 -0.1,26.8 15624,15624 0 0 0 -62.7,110 c -19,33.4 -10.8,54.9 24.4,64.5 z"
         style="fill:url(#CloudflareWorkersLogoCombinationMarkHorizontal--gradient-e);stroke:url(#linearGradient1328);stroke-width:1;stroke-opacity:1" />
      <path
         id="path7089"
         d="m 130,375 c -8,0 -16,-1.9 -23,-5.3 l 96.2,-173.5 c 3,-5.4 3,-12 0,-17.4 L 107,5.4 A 52,52 0 0 1 130,0 h 78 l 97,174.9 a 26,26 0 0 1 0,25.2 L 208,375 Z"
         style="fill:url(#CloudflareWorkersLogoCombinationMarkHorizontal--gradient-f);stroke:url(#linearGradient1330);stroke-width:1;stroke-opacity:1" />
      <path
         id="path7091"
         d="M 298.2,178.8 199,0 h 9 l 97,174.9 a 26,26 0 0 1 0,25.2 L 208,375 h -9 l 99.2,-178.8 c 3,-5.4 3,-12 0,-17.4 z"
         style="opacity:0.6;fill:url(#CloudflareWorkersLogoCombinationMarkHorizontal--gradient-g);stroke:url(#linearGradient1332);stroke-width:1;stroke-opacity:1" />
      <path
         id="path7093"
         d="M 203.2,178.8 107,5.4 c 3,-1.6 6.6,-2.8 10,-3.8 21.2,38.1 52.5,95.9 94,173.3 a 26,26 0 0 1 0,25.2 L 115.5,373 c -3.4,-1 -5.2,-1.7 -8.4,-3.2 l 96,-173.5 c 3,-5.4 3,-12 0,-17.4 z"
         style="opacity:0.6;fill:url(#CloudflareWorkersLogoCombinationMarkHorizontal--gradient-h);stroke:url(#linearGradient1334);stroke-width:1;stroke-opacity:1" />
    </g>
  </g>
</svg>
